<svg xmlns="http://www.w3.org/2000/svg" style="display:none"><defs><linearGradient id="bg" x1="0" y1="0" x2="1" y2="1"><stop stop-color="#102d47"/><stop offset=".5" stop-color="#071b2e"/><stop offset="1" stop-color="#030b14"/></linearGradient><linearGradient id="facet" x1="0" y1="0" x2="1" y2="1"><stop stop-color="#1f8bc7"/><stop offset="1" stop-color="#06121f"/></linearGradient><radialGradient id="halo"><stop stop-color="#0aaee8" stop-opacity=".32"/><stop offset="1" stop-color="#0aaee8" stop-opacity="0"/></radialGradient><filter id="glow" x="-50%" y="-50%" width="200%" height="200%"><feGaussianBlur stdDeviation="2.2" result="b"/><feMerge><feMergeNode in="b"/><feMergeNode in="SourceGraphic"/></feMerge></filter><symbol id="tile-fps" viewBox="0 0 180 180"><rect x="3" y="3" width="174" height="174" rx="20" fill="url(#bg)" stroke="#32d7ff" stroke-opacity=".75" stroke-width="2"/><path d="M10 132L58 84h45l67-67v153H10Z" fill="url(#facet)" opacity=".42"/><circle cx="90" cy="76" r="55" fill="url(#halo)" opacity=".65"/><g transform="translate(50 36) scale(1.25)" filter="url(#glow)"><use href="button-artwork.svg#fps"/></g><path d="M18 153h144" stroke="#32d7ff" stroke-opacity=".22"/><path d="M18 160h76" stroke="#32d7ff" stroke-opacity=".12"/></symbol><symbol id="tile-battery" viewBox="0 0 180 180"><rect x="3" y="3" width="174" height="174" rx="20" fill="url(#bg)" stroke="#4de3ad" stroke-opacity=".75" stroke-width="2"/><path d="M10 132L58 84h45l67-67v153H10Z" fill="url(#facet)" opacity=".42"/><circle cx="90" cy="76" r="55" fill="url(#halo)" opacity=".65"/><g transform="translate(50 36) scale(1.25)" filter="url(#glow)"><use href="button-artwork.svg#battery"/></g><path d="M18 153h144" stroke="#4de3ad" stroke-opacity=".22"/><path d="M18 160h76" stroke="#4de3ad" stroke-opacity=".12"/></symbol><symbol id="tile-controller" viewBox="0 0 180 180"><rect x="3" y="3" width="174" height="174" rx="20" fill="url(#bg)" stroke="#32d7ff" stroke-opacity=".75" stroke-width="2"/><path d="M10 132L58 84h45l67-67v153H10Z" fill="url(#facet)" opacity=".42"/><circle cx="90" cy="76" r="55" fill="url(#halo)" opacity=".65"/><g transform="translate(50 36) scale(1.25)" filter="url(#glow)"><use href="button-artwork.svg#controller"/></g><path d="M18 153h144" stroke="#32d7ff" stroke-opacity=".22"/><path d="M18 160h76" stroke="#32d7ff" stroke-opacity=".12"/></symbol><symbol id="tile-egpu" viewBox="0 0 180 180"><rect x="3" y="3" width="174" height="174" rx="20" fill="url(#bg)" stroke="#4de3ad" stroke-opacity=".75" stroke-width="2"/><path d="M10 132L58 84h45l67-67v153H10Z" fill="url(#facet)" opacity=".42"/><circle cx="90" cy="76" r="55" fill="url(#halo)" opacity=".65"/><g transform="translate(50 36) scale(1.25)" filter="url(#glow)"><use href="button-artwork.svg#egpu"/></g><path d="M18 153h144" stroke="#4de3ad" stroke-opacity=".22"/><path d="M18 160h76" stroke="#4de3ad" stroke-opacity=".12"/></symbol><symbol id="tile-display" viewBox="0 0 180 180"><rect x="3" y="3" width="174" height="174" rx="20" fill="url(#bg)" stroke="#32d7ff" stroke-opacity=".75" stroke-width="2"/><path d="M10 132L58 84h45l67-67v153H10Z" fill="url(#facet)" opacity=".42"/><circle cx="90" cy="76" r="55" fill="url(#halo)" opacity=".65"/><g transform="translate(50 36) scale(1.25)" filter="url(#glow)"><use href="button-artwork.svg#display"/></g><path d="M18 153h144" stroke="#32d7ff" stroke-opacity=".22"/><path d="M18 160h76" stroke="#32d7ff" stroke-opacity=".12"/></symbol><symbol id="tile-performance" viewBox="0 0 180 180"><rect x="3" y="3" width="174" height="174" rx="20" fill="url(#bg)" stroke="#32d7ff" stroke-opacity=".75" stroke-width="2"/><path d="M10 132L58 84h45l67-67v153H10Z" fill="url(#facet)" opacity=".42"/><circle cx="90" cy="76" r="55" fill="url(#halo)" opacity=".65"/><g transform="translate(50 36) scale(1.25)" filter="url(#glow)"><use href="button-artwork.svg#performance"/></g><path d="M18 153h144" stroke="#32d7ff" stroke-opacity=".22"/><path d="M18 160h76" stroke="#32d7ff" stroke-opacity=".12"/></symbol><symbol id="tile-manual-tdp" viewBox="0 0 180 180"><rect x="3" y="3" width="174" height="174" rx="20" fill="url(#bg)" stroke="#32d7ff" stroke-opacity=".75" stroke-width="2"/><path d="M10 132L58 84h45l67-67v153H10Z" fill="url(#facet)" opacity=".42"/><circle cx="90" cy="76" r="55" fill="url(#halo)" opacity=".65"/><g transform="translate(50 36) scale(1.25)" filter="url(#glow)"><use href="button-artwork.svg#manual-tdp"/></g><path d="M18 153h144" stroke="#32d7ff" stroke-opacity=".22"/><path d="M18 160h76" stroke="#32d7ff" stroke-opacity=".12"/></symbol><symbol id="tile-auto-tdp" viewBox="0 0 180 180"><rect x="3" y="3" width="174" height="174" rx="20" fill="url(#bg)" stroke="#4de3ad" stroke-opacity=".75" stroke-width="2"/><path d="M10 132L58 84h45l67-67v153H10Z" fill="url(#facet)" opacity=".42"/><circle cx="90" cy="76" r="55" fill="url(#halo)" opacity=".65"/><g transform="translate(50 36) scale(1.25)" filter="url(#glow)"><use href="button-artwork.svg#auto-tdp"/></g><path d="M18 153h144" stroke="#4de3ad" stroke-opacity=".22"/><path d="M18 160h76" stroke="#4de3ad" stroke-opacity=".12"/></symbol><symbol id="tile-handheld" viewBox="0 0 180 180"><rect x="3" y="3" width="174" height="174" rx="20" fill="url(#bg)" stroke="#32d7ff" stroke-opacity=".75" stroke-width="2"/><path d="M10 132L58 84h45l67-67v153H10Z" fill="url(#facet)" opacity=".42"/><circle cx="90" cy="76" r="55" fill="url(#halo)" opacity=".65"/><g transform="translate(50 36) scale(1.25)" filter="url(#glow)"><use href="button-artwork.svg#handheld"/></g><path d="M18 153h144" stroke="#32d7ff" stroke-opacity=".22"/><path d="M18 160h76" stroke="#32d7ff" stroke-opacity=".12"/></symbol><symbol id="tile-safe-disconnect" viewBox="0 0 180 180"><rect x="3" y="3" width="174" height="174" rx="20" fill="url(#bg)" stroke="#4de3ad" stroke-opacity=".75" stroke-width="2"/><path d="M10 132L58 84h45l67-67v153H10Z" fill="url(#facet)" opacity=".42"/><circle cx="90" cy="76" r="55" fill="url(#halo)" opacity=".65"/><g transform="translate(50 36) scale(1.25)" filter="url(#glow)"><use href="button-artwork.svg#safe-disconnect"/></g><path d="M18 153h144" stroke="#4de3ad" stroke-opacity=".22"/><path d="M18 160h76" stroke="#4de3ad" stroke-opacity=".12"/></symbol><symbol id="tile-disconnect-sleep" viewBox="0 0 180 180"><rect x="3" y="3" width="174" height="174" rx="20" fill="url(#bg)" stroke="#32d7ff" stroke-opacity=".75" stroke-width="2"/><path d="M10 132L58 84h45l67-67v153H10Z" fill="url(#facet)" opacity=".42"/><circle cx="90" cy="76" r="55" fill="url(#halo)" opacity=".65"/><g transform="translate(50 36) scale(1.25)" filter="url(#glow)"><use href="button-artwork.svg#disconnect-sleep"/></g><path d="M18 153h144" stroke="#32d7ff" stroke-opacity=".22"/><path d="M18 160h76" stroke="#32d7ff" stroke-opacity=".12"/></symbol><symbol id="tile-disconnect-shutdown" viewBox="0 0 180 180"><rect x="3" y="3" width="174" height="174" rx="20" fill="url(#bg)" stroke="#ff6b6b" stroke-opacity=".75" stroke-width="2"/><path d="M10 132L58 84h45l67-67v153H10Z" fill="url(#facet)" opacity=".42"/><circle cx="90" cy="76" r="55" fill="url(#halo)" opacity=".65"/><g transform="translate(50 36) scale(1.25)" filter="url(#glow)"><use href="button-artwork.svg#disconnect-shutdown"/></g><path d="M18 153h144" stroke="#ff6b6b" stroke-opacity=".22"/><path d="M18 160h76" stroke="#ff6b6b" stroke-opacity=".12"/></symbol><symbol id="tile-resolution" viewBox="0 0 180 180"><rect x="3" y="3" width="174" height="174" rx="20" fill="url(#bg)" stroke="#32d7ff" stroke-opacity=".75" stroke-width="2"/><path d="M10 132L58 84h45l67-67v153H10Z" fill="url(#facet)" opacity=".42"/><circle cx="90" cy="76" r="55" fill="url(#halo)" opacity=".65"/><g transform="translate(50 36) scale(1.25)" filter="url(#glow)"><use href="button-artwork.svg#resolution"/></g><path d="M18 153h144" stroke="#32d7ff" stroke-opacity=".22"/><path d="M18 160h76" stroke="#32d7ff" stroke-opacity=".12"/></symbol><symbol id="tile-refresh-rate" viewBox="0 0 180 180"><rect x="3" y="3" width="174" height="174" rx="20" fill="url(#bg)" stroke="#32d7ff" stroke-opacity=".75" stroke-width="2"/><path d="M10 132L58 84h45l67-67v153H10Z" fill="url(#facet)" opacity=".42"/><circle cx="90" cy="76" r="55" fill="url(#halo)" opacity=".65"/><g transform="translate(50 36) scale(1.25)" filter="url(#glow)"><use href="button-artwork.svg#refresh-rate"/></g><path d="M18 153h144" stroke="#32d7ff" stroke-opacity=".22"/><path d="M18 160h76" stroke="#32d7ff" stroke-opacity=".12"/></symbol><symbol id="tile-storage" viewBox="0 0 180 180"><rect x="3" y="3" width="174" height="174" rx="20" fill="url(#bg)" stroke="#32d7ff" stroke-opacity=".75" stroke-width="2"/><path d="M10 132L58 84h45l67-67v153H10Z" fill="url(#facet)" opacity=".42"/><circle cx="90" cy="76" r="55" fill="url(#halo)" opacity=".65"/><g transform="translate(50 36) scale(1.25)" filter="url(#glow)"><use href="button-artwork.svg#storage"/></g><path d="M18 153h144" stroke="#32d7ff" stroke-opacity=".22"/><path d="M18 160h76" stroke="#32d7ff" stroke-opacity=".12"/></symbol><symbol id="tile-wifi" viewBox="0 0 180 180"><rect x="3" y="3" width="174" height="174" rx="20" fill="url(#bg)" stroke="#32d7ff" stroke-opacity=".75" stroke-width="2"/><path d="M10 132L58 84h45l67-67v153H10Z" fill="url(#facet)" opacity=".42"/><circle cx="90" cy="76" r="55" fill="url(#halo)" opacity=".65"/><g transform="translate(50 36) scale(1.25)" filter="url(#glow)"><use href="button-artwork.svg#wifi"/></g><path d="M18 153h144" stroke="#32d7ff" stroke-opacity=".22"/><path d="M18 160h76" stroke="#32d7ff" stroke-opacity=".12"/></symbol><symbol id="tile-mic" viewBox="0 0 180 180"><rect x="3" y="3" width="174" height="174" rx="20" fill="url(#bg)" stroke="#ff6b6b" stroke-opacity=".75" stroke-width="2"/><path d="M10 132L58 84h45l67-67v153H10Z" fill="url(#facet)" opacity=".42"/><circle cx="90" cy="76" r="55" fill="url(#halo)" opacity=".65"/><g transform="translate(50 36) scale(1.25)" filter="url(#glow)"><use href="button-artwork.svg#mic"/></g><path d="M18 153h144" stroke="#ff6b6b" stroke-opacity=".22"/><path d="M18 160h76" stroke="#ff6b6b" stroke-opacity=".12"/></symbol><symbol id="tile-record" viewBox="0 0 180 180"><rect x="3" y="3" width="174" height="174" rx="20" fill="url(#bg)" stroke="#ff6b6b" stroke-opacity=".75" stroke-width="2"/><path d="M10 132L58 84h45l67-67v153H10Z" fill="url(#facet)" opacity=".42"/><circle cx="90" cy="76" r="55" fill="url(#halo)" opacity=".65"/><g transform="translate(50 36) scale(1.25)" filter="url(#glow)"><use href="button-artwork.svg#record"/></g><path d="M18 153h144" stroke="#ff6b6b" stroke-opacity=".22"/><path d="M18 160h76" stroke="#ff6b6b" stroke-opacity=".12"/></symbol><symbol id="tile-brightness" viewBox="0 0 180 180"><rect x="3" y="3" width="174" height="174" rx="20" fill="url(#bg)" stroke="#ffbf47" stroke-opacity=".75" stroke-width="2"/><path d="M10 132L58 84h45l67-67v153H10Z" fill="url(#facet)" opacity=".42"/><circle cx="90" cy="76" r="55" fill="url(#halo)" opacity=".65"/><g transform="translate(50 36) scale(1.25)" filter="url(#glow)"><use href="button-artwork.svg#brightness"/></g><path d="M18 153h144" stroke="#ffbf47" stroke-opacity=".22"/><path d="M18 160h76" stroke="#ffbf47" stroke-opacity=".12"/></symbol><symbol id="tile-volume" viewBox="0 0 180 180"><rect x="3" y="3" width="174" height="174" rx="20" fill="url(#bg)" stroke="#32d7ff" stroke-opacity=".75" stroke-width="2"/><path d="M10 132L58 84h45l67-67v153H10Z" fill="url(#facet)" opacity=".42"/><circle cx="90" cy="76" r="55" fill="url(#halo)" opacity=".65"/><g transform="translate(50 36) scale(1.25)" filter="url(#glow)"><use href="button-artwork.svg#volume"/></g><path d="M18 153h144" stroke="#32d7ff" stroke-opacity=".22"/><path d="M18 160h76" stroke="#32d7ff" stroke-opacity=".12"/></symbol><symbol id="tile-offline-ready" viewBox="0 0 180 180"><rect x="3" y="3" width="174" height="174" rx="20" fill="url(#bg)" stroke="#32d7ff" stroke-opacity=".75" stroke-width="2"/><path d="M10 132L58 84h45l67-67v153H10Z" fill="url(#facet)" opacity=".42"/><circle cx="90" cy="76" r="55" fill="url(#halo)" opacity=".65"/><g transform="translate(50 36) scale(1.25)" filter="url(#glow)"><use href="button-artwork.svg#offline-ready"/></g><path d="M18 153h144" stroke="#32d7ff" stroke-opacity=".22"/><path d="M18 160h76" stroke="#32d7ff" stroke-opacity=".12"/></symbol><symbol id="tile-charging" viewBox="0 0 180 180"><rect x="3" y="3" width="174" height="174" rx="20" fill="url(#bg)" stroke="#4de3ad" stroke-opacity=".75" stroke-width="2"/><path d="M10 132L58 84h45l67-67v153H10Z" fill="url(#facet)" opacity=".42"/><circle cx="90" cy="76" r="55" fill="url(#halo)" opacity=".65"/><g transform="translate(50 36) scale(1.25)" filter="url(#glow)"><use href="button-artwork.svg#charging"/></g><path d="M18 153h144" stroke="#4de3ad" stroke-opacity=".22"/><path d="M18 160h76" stroke="#4de3ad" stroke-opacity=".12"/></symbol><symbol id="tile-temperature" viewBox="0 0 180 180"><rect x="3" y="3" width="174" height="174" rx="20" fill="url(#bg)" stroke="#ff6b6b" stroke-opacity=".75" stroke-width="2"/><path d="M10 132L58 84h45l67-67v153H10Z" fill="url(#facet)" opacity=".42"/><circle cx="90" cy="76" r="55" fill="url(#halo)" opacity=".65"/><g transform="translate(50 36) scale(1.25)" filter="url(#glow)"><use href="button-artwork.svg#temperature"/></g><path d="M18 153h144" stroke="#ff6b6b" stroke-opacity=".22"/><path d="M18 160h76" stroke="#ff6b6b" stroke-opacity=".12"/></symbol><symbol id="tile-fan" viewBox="0 0 180 180"><rect x="3" y="3" width="174" height="174" rx="20" fill="url(#bg)" stroke="#32d7ff" stroke-opacity=".75" stroke-width="2"/><path d="M10 132L58 84h45l67-67v153H10Z" fill="url(#facet)" opacity=".42"/><circle cx="90" cy="76" r="55" fill="url(#halo)" opacity=".65"/><g transform="translate(50 36) scale(1.25)" filter="url(#glow)"><use href="button-artwork.svg#fan"/></g><path d="M18 153h144" stroke="#32d7ff" stroke-opacity=".22"/><path d="M18 160h76" stroke="#32d7ff" stroke-opacity=".12"/></symbol><symbol id="tile-network" viewBox="0 0 180 180"><rect x="3" y="3" width="174" height="174" rx="20" fill="url(#bg)" stroke="#32d7ff" stroke-opacity=".75" stroke-width="2"/><path d="M10 132L58 84h45l67-67v153H10Z" fill="url(#facet)" opacity=".42"/><circle cx="90" cy="76" r="55" fill="url(#halo)" opacity=".65"/><g transform="translate(50 36) scale(1.25)" filter="url(#glow)"><use href="button-artwork.svg#network"/></g><path d="M18 153h144" stroke="#32d7ff" stroke-opacity=".22"/><path d="M18 160h76" stroke="#32d7ff" stroke-opacity=".12"/></symbol><symbol id="tile-game-ready" viewBox="0 0 180 180"><rect x="3" y="3" width="174" height="174" rx="20" fill="url(#bg)" stroke="#4de3ad" stroke-opacity=".75" stroke-width="2"/><path d="M10 132L58 84h45l67-67v153H10Z" fill="url(#facet)" opacity=".42"/><circle cx="90" cy="76" r="55" fill="url(#halo)" opacity=".65"/><g transform="translate(50 36) scale(1.25)" filter="url(#glow)"><use href="button-artwork.svg#game-ready"/></g><path d="M18 153h144" stroke="#4de3ad" stroke-opacity=".22"/><path d="M18 160h76" stroke="#4de3ad" stroke-opacity=".12"/></symbol><symbol id="tile-player-order" viewBox="0 0 180 180"><rect x="3" y="3" width="174" height="174" rx="20" fill="url(#bg)" stroke="#32d7ff" stroke-opacity=".75" stroke-width="2"/><path d="M10 132L58 84h45l67-67v153H10Z" fill="url(#facet)" opacity=".42"/><circle cx="90" cy="76" r="55" fill="url(#halo)" opacity=".65"/><g transform="translate(50 36) scale(1.25)" filter="url(#glow)"><use href="button-artwork.svg#player-order"/></g><path d="M18 153h144" stroke="#32d7ff" stroke-opacity=".22"/><path d="M18 160h76" stroke="#32d7ff" stroke-opacity=".12"/></symbol><symbol id="tile-audio-output" viewBox="0 0 180 180"><rect x="3" y="3" width="174" height="174" rx="20" fill="url(#bg)" stroke="#32d7ff" stroke-opacity=".75" stroke-width="2"/><path d="M10 132L58 84h45l67-67v153H10Z" fill="url(#facet)" opacity=".42"/><circle cx="90" cy="76" r="55" fill="url(#halo)" opacity=".65"/><g transform="translate(50 36) scale(1.25)" filter="url(#glow)"><use href="button-artwork.svg#audio-output"/></g><path d="M18 153h144" stroke="#32d7ff" stroke-opacity=".22"/><path d="M18 160h76" stroke="#32d7ff" stroke-opacity=".12"/></symbol><symbol id="tile-gpu-load" viewBox="0 0 180 180"><rect x="3" y="3" width="174" height="174" rx="20" fill="url(#bg)" stroke="#32d7ff" stroke-opacity=".75" stroke-width="2"/><path d="M10 132L58 84h45l67-67v153H10Z" fill="url(#facet)" opacity=".42"/><circle cx="90" cy="76" r="55" fill="url(#halo)" opacity=".65"/><g transform="translate(50 36) scale(1.25)" filter="url(#glow)"><use href="button-artwork.svg#gpu-load"/></g><path d="M18 153h144" stroke="#32d7ff" stroke-opacity=".22"/><path d="M18 160h76" stroke="#32d7ff" stroke-opacity=".12"/></symbol><symbol id="tile-power-draw" viewBox="0 0 180 180"><rect x="3" y="3" width="174" height="174" rx="20" fill="url(#bg)" stroke="#ffbf47" stroke-opacity=".75" stroke-width="2"/><path d="M10 132L58 84h45l67-67v153H10Z" fill="url(#facet)" opacity=".42"/><circle cx="90" cy="76" r="55" fill="url(#halo)" opacity=".65"/><g transform="translate(50 36) scale(1.25)" filter="url(#glow)"><use href="button-artwork.svg#power-draw"/></g><path d="M18 153h144" stroke="#ffbf47" stroke-opacity=".22"/><path d="M18 160h76" stroke="#ffbf47" stroke-opacity=".12"/></symbol><symbol id="tile-frametime" viewBox="0 0 180 180"><rect x="3" y="3" width="174" height="174" rx="20" fill="url(#bg)" stroke="#32d7ff" stroke-opacity=".75" stroke-width="2"/><path d="M10 132L58 84h45l67-67v153H10Z" fill="url(#facet)" opacity=".42"/><circle cx="90" cy="76" r="55" fill="url(#halo)" opacity=".65"/><g transform="translate(50 36) scale(1.25)" filter="url(#glow)"><use href="button-artwork.svg#frametime"/></g><path d="M18 153h144" stroke="#32d7ff" stroke-opacity=".22"/><path d="M18 160h76" stroke="#32d7ff" stroke-opacity=".12"/></symbol><symbol id="tile-memory" viewBox="0 0 180 180"><rect x="3" y="3" width="174" height="174" rx="20" fill="url(#bg)" stroke="#32d7ff" stroke-opacity=".75" stroke-width="2"/><path d="M10 132L58 84h45l67-67v153H10Z" fill="url(#facet)" opacity=".42"/><circle cx="90" cy="76" r="55" fill="url(#halo)" opacity=".65"/><g transform="translate(50 36) scale(1.25)" filter="url(#glow)"><use href="button-artwork.svg#memory"/></g><path d="M18 153h144" stroke="#32d7ff" stroke-opacity=".22"/><path d="M18 160h76" stroke="#32d7ff" stroke-opacity=".12"/></symbol><symbol id="tile-clock" viewBox="0 0 180 180"><rect x="3" y="3" width="174" height="174" rx="20" fill="url(#bg)" stroke="#32d7ff" stroke-opacity=".75" stroke-width="2"/><path d="M10 132L58 84h45l67-67v153H10Z" fill="url(#facet)" opacity=".42"/><circle cx="90" cy="76" r="55" fill="url(#halo)" opacity=".65"/><g transform="translate(50 36) scale(1.25)" filter="url(#glow)"><use href="button-artwork.svg#clock"/></g><path d="M18 153h144" stroke="#32d7ff" stroke-opacity=".22"/><path d="M18 160h76" stroke="#32d7ff" stroke-opacity=".12"/></symbol><symbol id="tile-quick-access" viewBox="0 0 180 180"><rect x="3" y="3" width="174" height="174" rx="20" fill="url(#bg)" stroke="#32d7ff" stroke-opacity=".75" stroke-width="2"/><path d="M10 132L58 84h45l67-67v153H10Z" fill="url(#facet)" opacity=".42"/><circle cx="90" cy="76" r="55" fill="url(#halo)" opacity=".65"/><g transform="translate(50 36) scale(1.25)" filter="url(#glow)"><use href="button-artwork.svg#quick-access"/></g><path d="M18 153h144" stroke="#32d7ff" stroke-opacity=".22"/><path d="M18 160h76" stroke="#32d7ff" stroke-opacity=".12"/></symbol><symbol id="tile-settings" viewBox="0 0 180 180"><rect x="3" y="3" width="174" height="174" rx="20" fill="url(#bg)" stroke="#32d7ff" stroke-opacity=".75" stroke-width="2"/><path d="M10 132L58 84h45l67-67v153H10Z" fill="url(#facet)" opacity=".42"/><circle cx="90" cy="76" r="55" fill="url(#halo)" opacity=".65"/><g transform="translate(50 36) scale(1.25)" filter="url(#glow)"><use href="button-artwork.svg#settings"/></g><path d="M18 153h144" stroke="#32d7ff" stroke-opacity=".22"/><path d="M18 160h76" stroke="#32d7ff" stroke-opacity=".12"/></symbol><symbol id="tile-about" viewBox="0 0 180 180"><rect x="3" y="3" width="174" height="174" rx="20" fill="url(#bg)" stroke="#32d7ff" stroke-opacity=".75" stroke-width="2"/><path d="M10 132L58 84h45l67-67v153H10Z" fill="url(#facet)" opacity=".42"/><circle cx="90" cy="76" r="55" fill="url(#halo)" opacity=".65"/><g transform="translate(50 36) scale(1.25)" filter="url(#glow)"><use href="button-artwork.svg#about"/></g><path d="M18 153h144" stroke="#32d7ff" stroke-opacity=".22"/><path d="M18 160h76" stroke="#32d7ff" stroke-opacity=".12"/></symbol><symbol id="tile-more" viewBox="0 0 180 180"><rect x="3" y="3" width="174" height="174" rx="20" fill="url(#bg)" stroke="#32d7ff" stroke-opacity=".75" stroke-width="2"/><path d="M10 132L58 84h45l67-67v153H10Z" fill="url(#facet)" opacity=".42"/><circle cx="90" cy="76" r="55" fill="url(#halo)" opacity=".65"/><g transform="translate(50 36) scale(1.25)" filter="url(#glow)"><use href="button-artwork.svg#more"/></g><path d="M18 153h144" stroke="#32d7ff" stroke-opacity=".22"/><path d="M18 160h76" stroke="#32d7ff" stroke-opacity=".12"/></symbol></defs></svg>