<svg xmlns="http://www.w3.org/2000/svg" viewBox="0 0 240 144" role="img" aria-label="Static Performance tile artwork">
<defs>
 <linearGradient id="surface" x1="12" y1="5" x2="224" y2="142" gradientUnits="userSpaceOnUse"><stop stop-color="#0b3156"/><stop offset=".34" stop-color="#071f39"/><stop offset=".7" stop-color="#041326"/><stop offset="1" stop-color="#010813"/></linearGradient>
 <linearGradient id="rim" x1="16" y1="0" x2="225" y2="144" gradientUnits="userSpaceOnUse"><stop stop-color="#6beeff"/><stop offset=".18" stop-color="#08c8ff"/><stop offset=".62" stop-color="#1589e8"/><stop offset="1" stop-color="#18e8ff"/></linearGradient>
 <linearGradient id="glass" x1="18" y1="7" x2="132" y2="119" gradientUnits="userSpaceOnUse"><stop stop-color="#b7f8ff" stop-opacity=".16"/><stop offset=".28" stop-color="#0f89cf" stop-opacity=".06"/><stop offset="1" stop-color="#020b19" stop-opacity="0"/></linearGradient>
 <linearGradient id="panel" x1="113" y1="15" x2="229" y2="136" gradientUnits="userSpaceOnUse"><stop stop-color="#0b80c6" stop-opacity=".26"/><stop offset=".44" stop-color="#08345e" stop-opacity=".18"/><stop offset="1" stop-color="#03101f" stop-opacity=".02"/></linearGradient>
 <linearGradient id="accent" x1="0" y1="0" x2="1" y2="1"><stop stop-color="#e9feff"/><stop offset=".22" stop-color="#62f1ff"/><stop offset=".62" stop-color="#08aeea"/><stop offset="1" stop-color="#07519f"/></linearGradient>
 <linearGradient id="metal" x1="0" y1="0" x2="1" y2="1"><stop stop-color="#f5fdff"/><stop offset=".2" stop-color="#9bd8ef"/><stop offset=".55" stop-color="#31658a"/><stop offset="1" stop-color="#071627"/></linearGradient>
 <linearGradient id="green" x1="0" y1="0" x2="1" y2="1"><stop stop-color="#caffee"/><stop offset=".28" stop-color="#39f5b0"/><stop offset="1" stop-color="#00765c"/></linearGradient>
 <linearGradient id="danger" x1="0" y1="0" x2="1" y2="1"><stop stop-color="#fff4ed"/><stop offset=".22" stop-color="#ff725f"/><stop offset=".72" stop-color="#e31c35"/><stop offset="1" stop-color="#6e0718"/></linearGradient>
 <linearGradient id="gold" x1="0" y1="0" x2="1" y2="1"><stop stop-color="#fffbd1"/><stop offset=".3" stop-color="#ffe52e"/><stop offset="1" stop-color="#e87b00"/></linearGradient>
 <radialGradient id="orb"><stop stop-color="#ff334a" stop-opacity=".28"/><stop offset=".55" stop-color="#ff334a" stop-opacity=".09"/><stop offset="1" stop-color="#ff334a" stop-opacity="0"/></radialGradient>
 <filter id="outerGlow" x="-30%" y="-50%" width="160%" height="200%"><feGaussianBlur stdDeviation="2.3" result="b"/><feColorMatrix in="b" values="0 0 0 0 .02 0 0 0 0 .75 0 0 0 0 1 0 0 0 .72 0" result="c"/><feMerge><feMergeNode in="c"/><feMergeNode in="SourceGraphic"/></feMerge></filter>
 <filter id="glow" x="-80%" y="-80%" width="260%" height="260%"><feGaussianBlur stdDeviation="3" result="b"/><feMerge><feMergeNode in="b"/><feMergeNode in="SourceGraphic"/></feMerge></filter>
 <filter id="shadow" x="-80%" y="-80%" width="260%" height="260%"><feDropShadow dx="0" dy="2" stdDeviation="2" flood-color="#000711" flood-opacity=".95"/></filter>

 <radialGradient id="halo" cx="190" cy="72" r="58" gradientUnits="userSpaceOnUse"><stop stop-color="#01050d" stop-opacity=".92"/><stop offset=".62" stop-color="#020a17" stop-opacity=".7"/><stop offset=".86" stop-color="#2f86ff" stop-opacity=".1"/><stop offset="1" stop-color="#2f86ff" stop-opacity="0"/></radialGradient>
 <filter id="bloom" x="-40%" y="-40%" width="180%" height="180%"><feGaussianBlur in="SourceAlpha" stdDeviation="4.5" result="b"/><feColorMatrix in="b" values="0 0 0 0 0.180 0 0 0 0 0.500 0 0 0 0 1.000 0 0 0 .75 0" result="c"/><feMerge><feMergeNode in="c"/><feMergeNode in="SourceGraphic"/></feMerge></filter>

 <radialGradient id="dialFace" cx=".5" cy=".45" r=".6"><stop stop-color="#0d2140"/><stop offset=".8" stop-color="#050d1c"/><stop offset="1" stop-color="#02060e"/></radialGradient>
 <linearGradient id="needle" x1="55" y1="55" x2="83" y2="33" gradientUnits="userSpaceOnUse"><stop stop-color="#ff3a2a"/><stop offset="1" stop-color="#ffa060"/></linearGradient>
 <radialGradient id="hubRed" cx=".35" cy=".3" r=".8"><stop stop-color="#ffb4a0"/><stop offset=".5" stop-color="#ff2d2d"/><stop offset="1" stop-color="#8a0010"/></radialGradient>
 <clipPath id="clip"><rect x="2" y="2" width="236" height="140" rx="13"/></clipPath>
</defs>
<g filter="url(#outerGlow)"><rect x="2.5" y="2.5" width="235" height="139" rx="13" fill="url(#surface)" stroke="url(#rim)" stroke-width="1.5"/></g>
<g clip-path="url(#clip)">
 <path d="M10 7H164L129 69 86 144H4V18Q4 7 15 7Z" fill="url(#glass)"/>
 <path d="M6 19 124 4h41l-17 30L92 43 63 94 5 113Z" fill="#0b4f7d" opacity=".09"/>
 <path d="M86 144 145 42 174 2h30l-31 57-48 85Z" fill="url(#panel)"/>
 <path d="m104 144 57-99 21-43h14l-24 49-54 93Z" fill="#0e75ad" opacity=".16"/>
 <path d="m122 144 47-80 19-39 4 16-15 29-42 74Z" fill="#21b9e7" opacity=".08"/>
 <path d="M16 118 79 8M39 144 118 5M74 144l80-139M109 144 185 10" fill="none" stroke="#178ec2" stroke-opacity=".16" stroke-width=".7"/>
 <path d="M8 31 116 17M6 109l81-22M30 138l74-20" fill="none" stroke="#5ae9ff" stroke-opacity=".07" stroke-width=".6"/>
 <path d="M13 8h137" stroke="#c1fbff" stroke-opacity=".17"/>
 <circle cx="190" cy="72" r="58" fill="url(#halo)"/>
 <path d="M150 20h14l8 8h20M141 128h18l7-7h22M226 40v18l-6 6M134 60l9 9v16" fill="none" stroke="#2aa9e6" stroke-opacity=".22" stroke-width=".8"/>
 <g fill="#57d8ff" fill-opacity=".35"><circle cx="192" cy="28" r="1.2"/><circle cx="188" cy="121" r="1.2"/><circle cx="220" cy="64" r="1.2"/><circle cx="143" cy="85" r="1.2"/></g>
 <g filter="url(#bloom)"><g transform="translate(188 72) scale(0.800) translate(-55.0 -55.0)"><g filter="url(#shadow)"><circle cx="55" cy="55" r="50" fill="url(#dialFace)" stroke="#2a7fe0" stroke-width="2.6"/><circle cx="55" cy="55" r="46" fill="none" stroke="#7fd4ff" stroke-opacity=".25" stroke-width="1"/><g filter="url(#glow)"><path d="M25.94 82.48A40 40 0 0 1 17.93 70.02" fill="none" stroke="#1e6bff" stroke-width="9"/><path d="M17.15 67.93A40 40 0 0 1 15.04 53.26" fill="none" stroke="#257fff" stroke-width="9"/><path d="M15.20 51.03A40 40 0 0 1 19.37 36.82" fill="none" stroke="#2b93ff" stroke-width="9"/><path d="M20.44 34.86A40 40 0 0 1 30.14 23.66" fill="none" stroke="#32a8ff" stroke-width="9"/><path d="M31.93 22.32A40 40 0 0 1 45.41 16.17" fill="none" stroke="#38bcff" stroke-width="9"/><path d="M47.59 15.69A40 40 0 0 1 62.41 15.69" fill="none" stroke="#ff8a3a" stroke-width="9"/><path d="M64.59 16.17A40 40 0 0 1 78.07 22.32" fill="none" stroke="#ff7539" stroke-width="9"/><path d="M79.86 23.66A40 40 0 0 1 89.56 34.86" fill="none" stroke="#ff5f38" stroke-width="9"/><path d="M90.63 36.82A40 40 0 0 1 94.80 51.03" fill="none" stroke="#ff4a37" stroke-width="9"/><path d="M94.96 53.26A40 40 0 0 1 92.85 67.93" fill="none" stroke="#ff3436" stroke-width="9"/><path d="M92.07 70.02A40 40 0 0 1 84.06 82.48" fill="none" stroke="#ff1f35" stroke-width="9"/></g><path d="M34.09 76.51A30 30 0 0 1 33.49 75.91" fill="none" stroke="#6fb8ff" stroke-opacity=".55" stroke-width="3"/><path d="M26.60 64.67A30 30 0 0 1 26.34 63.87" fill="none" stroke="#6fb8ff" stroke-opacity=".55" stroke-width="3"/><path d="M25.31 50.72A30 30 0 0 1 25.44 49.89" fill="none" stroke="#6fb8ff" stroke-opacity=".55" stroke-width="3"/><path d="M30.49 37.71A30 30 0 0 1 30.98 37.03" fill="none" stroke="#6fb8ff" stroke-opacity=".55" stroke-width="3"/><path d="M41.01 28.46A30 30 0 0 1 41.75 28.08" fill="none" stroke="#6fb8ff" stroke-opacity=".55" stroke-width="3"/><path d="M54.58 25.00A30 30 0 0 1 55.42 25.00" fill="none" stroke="#6fb8ff" stroke-opacity=".55" stroke-width="3"/><path d="M68.25 28.08A30 30 0 0 1 68.99 28.46" fill="none" stroke="#6fb8ff" stroke-opacity=".55" stroke-width="3"/><path d="M79.02 37.03A30 30 0 0 1 79.51 37.71" fill="none" stroke="#6fb8ff" stroke-opacity=".55" stroke-width="3"/><path d="M84.56 49.89A30 30 0 0 1 84.69 50.72" fill="none" stroke="#6fb8ff" stroke-opacity=".55" stroke-width="3"/><path d="M83.66 63.87A30 30 0 0 1 83.40 64.67" fill="none" stroke="#6fb8ff" stroke-opacity=".55" stroke-width="3"/><path d="M76.51 75.91A30 30 0 0 1 75.91 76.51" fill="none" stroke="#6fb8ff" stroke-opacity=".55" stroke-width="3"/><path d="M55 55L83.4 32.8" stroke="url(#needle)" stroke-width="3.4" stroke-linecap="round" filter="url(#glow)"/><circle cx="55" cy="55" r="6.5" fill="url(#hubRed)" stroke="#ffb09a" stroke-width=".8"/><circle cx="55" cy="55" r="2.4" fill="#2a0508"/></g></g></g>
 <path d="M5 139h119" stroke="#0ad8ff" stroke-opacity=".18"/><path d="M8 5h223" stroke="#d9fdff" stroke-opacity=".09"/>
</g>
<rect x="2.5" y="2.5" width="235" height="139" rx="13" fill="none" stroke="#60eaff" stroke-opacity=".38" stroke-width=".55"/>
</svg>