<svg xmlns="http://www.w3.org/2000/svg" viewBox="0 0 240 144" role="img" aria-label="Static Handheld tile artwork">
<defs>
 <linearGradient id="surface" x1="12" y1="5" x2="224" y2="142" gradientUnits="userSpaceOnUse"><stop stop-color="#0b3156"/><stop offset=".34" stop-color="#071f39"/><stop offset=".7" stop-color="#041326"/><stop offset="1" stop-color="#010813"/></linearGradient>
 <linearGradient id="rim" x1="16" y1="0" x2="225" y2="144" gradientUnits="userSpaceOnUse"><stop stop-color="#6beeff"/><stop offset=".18" stop-color="#08c8ff"/><stop offset=".62" stop-color="#1589e8"/><stop offset="1" stop-color="#18e8ff"/></linearGradient>
 <linearGradient id="glass" x1="18" y1="7" x2="132" y2="119" gradientUnits="userSpaceOnUse"><stop stop-color="#b7f8ff" stop-opacity=".16"/><stop offset=".28" stop-color="#0f89cf" stop-opacity=".06"/><stop offset="1" stop-color="#020b19" stop-opacity="0"/></linearGradient>
 <linearGradient id="panel" x1="113" y1="15" x2="229" y2="136" gradientUnits="userSpaceOnUse"><stop stop-color="#0b80c6" stop-opacity=".26"/><stop offset=".44" stop-color="#08345e" stop-opacity=".18"/><stop offset="1" stop-color="#03101f" stop-opacity=".02"/></linearGradient>
 <linearGradient id="accent" x1="0" y1="0" x2="1" y2="1"><stop stop-color="#e9feff"/><stop offset=".22" stop-color="#62f1ff"/><stop offset=".62" stop-color="#08aeea"/><stop offset="1" stop-color="#07519f"/></linearGradient>
 <linearGradient id="metal" x1="0" y1="0" x2="1" y2="1"><stop stop-color="#f5fdff"/><stop offset=".2" stop-color="#9bd8ef"/><stop offset=".55" stop-color="#31658a"/><stop offset="1" stop-color="#071627"/></linearGradient>
 <linearGradient id="green" x1="0" y1="0" x2="1" y2="1"><stop stop-color="#caffee"/><stop offset=".28" stop-color="#39f5b0"/><stop offset="1" stop-color="#00765c"/></linearGradient>
 <linearGradient id="danger" x1="0" y1="0" x2="1" y2="1"><stop stop-color="#fff4ed"/><stop offset=".22" stop-color="#ff725f"/><stop offset=".72" stop-color="#e31c35"/><stop offset="1" stop-color="#6e0718"/></linearGradient>
 <linearGradient id="gold" x1="0" y1="0" x2="1" y2="1"><stop stop-color="#fffbd1"/><stop offset=".3" stop-color="#ffe52e"/><stop offset="1" stop-color="#e87b00"/></linearGradient>
 <radialGradient id="orb"><stop stop-color="#27dfff" stop-opacity=".28"/><stop offset=".55" stop-color="#27dfff" stop-opacity=".09"/><stop offset="1" stop-color="#27dfff" stop-opacity="0"/></radialGradient>
 <filter id="outerGlow" x="-30%" y="-50%" width="160%" height="200%"><feGaussianBlur stdDeviation="2.3" result="b"/><feColorMatrix in="b" values="0 0 0 0 .02 0 0 0 0 .75 0 0 0 0 1 0 0 0 .72 0" result="c"/><feMerge><feMergeNode in="c"/><feMergeNode in="SourceGraphic"/></feMerge></filter>
 <filter id="glow" x="-80%" y="-80%" width="260%" height="260%"><feGaussianBlur stdDeviation="3" result="b"/><feMerge><feMergeNode in="b"/><feMergeNode in="SourceGraphic"/></feMerge></filter>
 <filter id="shadow" x="-80%" y="-80%" width="260%" height="260%"><feDropShadow dx="0" dy="2" stdDeviation="2" flood-color="#000711" flood-opacity=".95"/></filter>

 <radialGradient id="halo" cx="190" cy="72" r="58" gradientUnits="userSpaceOnUse"><stop stop-color="#01050d" stop-opacity=".92"/><stop offset=".62" stop-color="#020a17" stop-opacity=".7"/><stop offset=".86" stop-color="#27dfff" stop-opacity=".1"/><stop offset="1" stop-color="#27dfff" stop-opacity="0"/></radialGradient>
 <filter id="bloom" x="-40%" y="-40%" width="180%" height="180%"><feGaussianBlur in="SourceAlpha" stdDeviation="4.5" result="b"/><feColorMatrix in="b" values="0 0 0 0 0.153 0 0 0 0 0.875 0 0 0 0 1.000 0 0 0 .75 0" result="c"/><feMerge><feMergeNode in="c"/><feMergeNode in="SourceGraphic"/></feMerge></filter>

 <linearGradient id="hhBody" x1="0" y1="0" x2="0" y2="1"><stop stop-color="#f4f8fc"/><stop offset=".35" stop-color="#c3cfdc"/><stop offset=".8" stop-color="#8395ab"/><stop offset="1" stop-color="#5b6c82"/></linearGradient>
 <linearGradient id="hhScreen" x1="0" y1="0" x2="1" y2="1"><stop stop-color="#23385a"/><stop offset=".55" stop-color="#0d1728"/><stop offset="1" stop-color="#05080e"/></linearGradient>
 <radialGradient id="hsCap" cx=".4" cy=".35" r=".8"><stop stop-color="#4f5d70"/><stop offset="1" stop-color="#0c1119"/></radialGradient>

 <linearGradient id="axBody" x1="0" y1="0" x2="0" y2="1"><stop stop-color="#3a3f48"/><stop offset=".25" stop-color="#1c1f25"/><stop offset=".75" stop-color="#0d0e11"/><stop offset="1" stop-color="#060708"/></linearGradient>
 <linearGradient id="axRim" x1="0" y1="0" x2="1" y2="0"><stop stop-color="#6d7a8c"/><stop offset=".5" stop-color="#3a4250"/><stop offset="1" stop-color="#6d7a8c"/></linearGradient>
 <linearGradient id="axRgb" x1="0" y1="0" x2="1" y2="1"><stop stop-color="#ff5cf4"/><stop offset=".5" stop-color="#b44bff"/><stop offset="1" stop-color="#5a6bff"/></linearGradient>
 <radialGradient id="axScreen" cx=".5" cy=".42" r=".75"><stop stop-color="#2a1a6e"/><stop offset=".55" stop-color="#0e0a2e"/><stop offset="1" stop-color="#04030c"/></radialGradient>
 <linearGradient id="axWave" x1="0" y1="0" x2="1" y2="0"><stop stop-color="#5a8bff"/><stop offset=".5" stop-color="#b44bff"/><stop offset="1" stop-color="#ff5cf4"/></linearGradient>
 <radialGradient id="axCap" cx=".4" cy=".35" r=".8"><stop stop-color="#4a505a"/><stop offset=".6" stop-color="#15181d"/><stop offset="1" stop-color="#060708"/></radialGradient>
 <filter id="axGlow" x="-50%" y="-50%" width="200%" height="200%"><feGaussianBlur stdDeviation="1.6" result="b"/><feMerge><feMergeNode in="b"/><feMergeNode in="SourceGraphic"/></feMerge></filter>
 <clipPath id="clip"><rect x="2" y="2" width="236" height="140" rx="13"/></clipPath>
</defs>
<g filter="url(#outerGlow)"><rect x="2.5" y="2.5" width="235" height="139" rx="13" fill="url(#surface)" stroke="url(#rim)" stroke-width="1.5"/></g>
<g clip-path="url(#clip)">
 <path d="M10 7H164L129 69 86 144H4V18Q4 7 15 7Z" fill="url(#glass)"/>
 <path d="M6 19 124 4h41l-17 30L92 43 63 94 5 113Z" fill="#0b4f7d" opacity=".09"/>
 <path d="M86 144 145 42 174 2h30l-31 57-48 85Z" fill="url(#panel)"/>
 <path d="m104 144 57-99 21-43h14l-24 49-54 93Z" fill="#0e75ad" opacity=".16"/>
 <path d="m122 144 47-80 19-39 4 16-15 29-42 74Z" fill="#21b9e7" opacity=".08"/>
 <path d="M16 118 79 8M39 144 118 5M74 144l80-139M109 144 185 10" fill="none" stroke="#178ec2" stroke-opacity=".16" stroke-width=".7"/>
 <path d="M8 31 116 17M6 109l81-22M30 138l74-20" fill="none" stroke="#5ae9ff" stroke-opacity=".07" stroke-width=".6"/>
 <path d="M13 8h137" stroke="#c1fbff" stroke-opacity=".17"/>
 <circle cx="190" cy="72" r="58" fill="url(#halo)"/>
 <path d="M150 20h14l8 8h20M141 128h18l7-7h22M226 40v18l-6 6M134 60l9 9v16" fill="none" stroke="#2aa9e6" stroke-opacity=".22" stroke-width=".8"/>
 <g fill="#57d8ff" fill-opacity=".35"><circle cx="192" cy="28" r="1.2"/><circle cx="188" cy="121" r="1.2"/><circle cx="220" cy="64" r="1.2"/><circle cx="143" cy="85" r="1.2"/></g>
 <g filter="url(#bloom)"><g transform="translate(187 72) scale(.66) translate(-75 -35.5)"><g filter="url(#shadow)"><path d="M20 5H130Q145 5 148 20L150 46Q151 66 134 66Q124 66 118 60H32Q26 66 16 66Q-1 66 0 46L2 20Q5 5 20 5Z" fill="url(#axBody)" stroke="url(#axRim)" stroke-width="1.1"/><path d="M22 7.5H128" stroke="#fff" stroke-opacity=".25" stroke-width="1" stroke-linecap="round"/><path d="M5.0 40.0l3.5 14" stroke="#2a2e35" stroke-width="1.1" stroke-linecap="round"/><path d="M7.2 40.6l3.5 14" stroke="#2a2e35" stroke-width="1.1" stroke-linecap="round"/><path d="M9.4 41.2l3.5 14" stroke="#2a2e35" stroke-width="1.1" stroke-linecap="round"/><path d="M11.600000000000001 41.8l3.5 14" stroke="#2a2e35" stroke-width="1.1" stroke-linecap="round"/><path d="M145.0 40.0l-3.5 14" stroke="#2a2e35" stroke-width="1.1" stroke-linecap="round"/><path d="M142.8 40.6l-3.5 14" stroke="#2a2e35" stroke-width="1.1" stroke-linecap="round"/><path d="M140.6 41.2l-3.5 14" stroke="#2a2e35" stroke-width="1.1" stroke-linecap="round"/><path d="M138.4 41.8l-3.5 14" stroke="#2a2e35" stroke-width="1.1" stroke-linecap="round"/><rect x="35" y="8" width="80" height="52" rx="3.5" fill="#040506" stroke="#2c323b" stroke-width=".7"/><rect x="38.5" y="11" width="73" height="44" rx="1.5" fill="url(#axScreen)"/><g fill="none" stroke="url(#axWave)" stroke-linecap="round" filter="url(#axGlow)"><path d="M44 36Q58 22 75 30T106 22" stroke-width="2"/><path d="M46 42Q62 30 78 36T104 30" stroke-width="1.2" stroke-opacity=".7"/></g><g stroke="#6a4bff" stroke-opacity=".35" stroke-width=".5"><path d="M39 50H111M39 53H111M52 47L46 55M64 47L62 55M75 47V55M86 47L88 55M98 47L104 55"/></g><path d="M38.5 11H70L50 55H38.5Z" fill="#fff" fill-opacity=".05"/><circle cx="18" cy="24" r="8.6" fill="none" stroke="url(#axRgb)" stroke-width="2.6" filter="url(#axGlow)"/><circle cx="18" cy="24" r="6" fill="url(#axCap)" stroke="#555d68" stroke-width=".6"/><path d="M14.4 21.6a4.4 4.4 0 0 1 5 -2.2" fill="none" stroke="#fff" stroke-opacity=".4" stroke-width=".8"/><circle cx="132" cy="46" r="8.6" fill="none" stroke="url(#axRgb)" stroke-width="2.6" filter="url(#axGlow)"/><circle cx="132" cy="46" r="6" fill="url(#axCap)" stroke="#555d68" stroke-width=".6"/><path d="M128.4 43.6a4.4 4.4 0 0 1 5 -2.2" fill="none" stroke="#fff" stroke-opacity=".4" stroke-width=".8"/><path d="M15.6 38h4.8v5h5v4.8h-5v5h-4.8v-5h-5v-4.8h5Z" fill="url(#axCap)" stroke="#6b7480" stroke-width=".7" stroke-linejoin="round"/><g stroke="#000" stroke-width=".5"><circle cx="132" cy="15.5" r="2.7" fill="#23262c"/><circle cx="126.5" cy="21" r="2.7" fill="#23262c"/><circle cx="137.5" cy="21" r="2.7" fill="#23262c"/><circle cx="132" cy="26.5" r="2.7" fill="#23262c"/></g><g fill="none" stroke-width=".8" stroke-linecap="round"><path d="M131 14.8l1 1 1-1M132 15.8v1" stroke="#c9a6ff"/><path d="M125.5 20l2 2M127.5 20l-2 2" stroke="#6aa0ff"/><circle cx="137.5" cy="21" r="1" stroke="#ff7ad9"/><path d="M131 27.4l1-1.9 1 1.9" stroke="#7de0a8"/></g><g fill="#1d2025" stroke="#4a515c" stroke-width=".5"><rect x="28" y="13" width="4" height="5" rx="1"/><rect x="28" y="21" width="4" height="5" rx="1"/><rect x="118" y="13" width="4" height="5" rx="1"/><rect x="118" y="21" width="4" height="5" rx="1"/></g><rect x="68" y="61.5" width="14" height="1.6" rx=".8" fill="#3a404a"/></g></g></g>
 <path d="M5 139h119" stroke="#0ad8ff" stroke-opacity=".18"/><path d="M8 5h223" stroke="#d9fdff" stroke-opacity=".09"/>
</g>
<rect x="2.5" y="2.5" width="235" height="139" rx="13" fill="none" stroke="#60eaff" stroke-opacity=".38" stroke-width=".55"/>
</svg>