<svg xmlns="http://www.w3.org/2000/svg" viewBox="0 0 256 128" role="img" aria-labelledby="title"><title id="title">Ready offline</title><g transform="translate(18 16)"><path fill="#fff" d="M50 4h20l4 14a38 38 0 0 1 10 6l14-5 10 18-11 10a38 38 0 0 1 0 12l11 10-10 18-14-5a38 38 0 0 1-10 6l-4 14H50l-4-14a38 38 0 0 1-10-6l-14 5-10-18 11-10a38 38 0 0 1 0-12L12 37l10-18 14 5a38 38 0 0 1 10-6L50 4Zm10 29a21 21 0 1 0 0 42 21 21 0 0 0 0-42Z"/><circle cx="174" cy="48" r="40" fill="#20e878"/><path d="M153 48l14 14 29-31" fill="none" stroke="#08131d" stroke-width="10" stroke-linecap="round" stroke-linejoin="round"/></g></svg>